<svg xmlns="http://www.w3.org/2000/svg" width="256" height="256"><path fill="#1976D2" fill-opacity=".016" fill-rule="evenodd" d="M0 128.004v128.004l128.25-.254 128.25-.254.254-127.75L257.008 0H0zm.485.496c0 70.4.119 99.053.265 63.672s.146-92.98 0-128S.485 58.1.485 128.5"/><path fill="#1976D2" fill-opacity=".267" fill-rule="evenodd" d="M82 1.477c0 2.06-3.612 4.181-9.5 5.581-2.75.654-6.617 2.448-8.593 3.987-1.976 1.538-5.299 3.51-7.384 4.381-4.497 1.879-9.094 5.577-18.829 15.147-8.698 8.551-13.037 13.929-15.384 19.066-.971 2.124-2.967 5.288-4.437 7.032s-3.171 5.491-3.779 8.327c-1.395 6.506-2.572 8.702-5.093 9.502C7.019 75.129 7 75.997 7 165.567V256h16.465c14.956 0 16.555-.168 17.448-1.838.6-1.12 3.514-2.522 7.466-3.592 3.566-.965 7.976-2.862 9.802-4.216s5.28-3.334 7.676-4.399 5.546-3.09 7-4.498 5.343-4.881 8.643-7.717c3.3-2.837 7.24-6.863 8.756-8.948S93.451 217 93.986 217s1.861-1.74 2.946-3.866 3.124-5.236 4.532-6.909 3.248-4.996 4.089-7.384 2.609-5.916 3.929-7.841c1.605-2.34 2.941-6.648 4.033-13 .898-5.225 2.5-13.712 3.559-18.86 1.801-8.752 1.926-14.228 1.926-84.25V0h-18.5C84.851 0 82 .228 82 1.477m86.682 1.362c-.47 2.349-1.536 3.21-6.175 4.985-5.57 2.132-17.047 11.155-18 14.152-.267.838-1.553 2.675-2.858 4.081-3.378 3.641-4.381 5.806-7.269 15.682-4.084 13.969-4.205 21.598-.559 35.104 2.432 9.006 4.008 12.713 7.65 17.987 5.497 7.962 15.01 16.523 20.239 18.214 2.084.674 5.626 2.288 7.871 3.587 9.316 5.39 31.237 5.069 42.419-.621 3.025-1.539 6.811-3.408 8.414-4.154 4.975-2.315 17.692-15.846 20.18-21.473 1.248-2.821 3.425-6.039 4.837-7.15L248 81.212V60.173c0-20.443-.059-21.057-2.084-21.7-1.308-.415-3.119-2.967-4.862-6.853-3.838-8.553-16.707-21.348-24.093-23.953-4.017-1.417-5.448-2.496-6.298-4.75L209.562 0H169.25zm8.634 133.221c-3.507.353-7.403 1.449-9 2.53-1.549 1.049-4.919 2.818-7.49 3.933-4.611 1.999-15.673 11.841-21.13 18.799-2.643 3.371-6.069 11.918-9.277 23.146-1.839 6.438-1.817 19.013.043 24.623 4.824 14.55 6.5 18.505 9.595 22.637 5.754 7.685 14.156 15.308 19.638 17.819 2.857 1.309 5.686 3.296 6.285 4.416 1.048 1.957 1.978 2.037 23.661 2.037h22.571l1.949-2.477c1.072-1.363 3.837-3.316 6.144-4.341 5.445-2.419 18.476-15.473 20.906-20.943 1.041-2.343 2.994-4.982 4.341-5.865L248 220.77v-24.768c0-23.996-.063-24.785-2.017-25.296-1.171-.306-2.843-2.396-3.988-4.983-2.602-5.883-17.115-20.405-22.86-22.874-2.401-1.032-5.63-2.777-7.175-3.878-4.787-3.408-18.391-4.552-34.644-2.911"/><path fill="#1976D2" fill-opacity=".168" fill-rule="evenodd" d="M91 1.977c0 2.804-3.969 5.054-11.766 6.669-3.704.768-8.077 2.378-9.719 3.578-1.642 1.201-5.203 3.253-7.915 4.561-11.068 5.34-28.554 22.143-35.977 34.572l-5.195 8.705c-1.825 3.059-4.065 8.843-4.977 12.854C13.807 80.145 11.389 84 8.5 84 7.178 84 7 94.222 7 170v86h23.129l2.494-2.964c2.032-2.415 3.995-3.286 10.604-4.706 4.722-1.015 9.189-2.642 10.692-3.894 1.419-1.183 4.777-3.115 7.461-4.295s6.619-3.605 8.746-5.392c11.527-9.684 15.639-13.531 18.13-16.957 1.516-2.086 3.149-3.792 3.629-3.792s1.439-1.368 2.132-3.041 2.564-4.842 4.159-7.043c2.525-3.486 10.376-20.52 12.212-26.497.352-1.144 1.307-9.019 2.123-17.5 1.135-11.803 1.482-30.427 1.48-79.419-.002-35.2-.292-67.713-.645-72.25L112.704 0h-10.852C91.709 0 91 .129 91 1.977m91 137.669c-1.375.274-5.65 1.861-9.5 3.526s-8.35 3.598-10 4.295c-4.267 1.804-14.986 11.109-16.419 14.254-.664 1.458-2.499 4.282-4.077 6.274-2.2 2.777-3.235 5.711-4.434 12.564-1.911 10.925-1.947 18.004-.158 30.628 1.281 9.043 1.695 10.134 6.23 16.432 2.672 3.71 5.758 7.554 6.858 8.542 7.708 6.922 12.172 9.724 18.005 11.303 6.237 1.688 8.578 3.307 9.812 6.786.537 1.516 2.024 1.75 11.133 1.75 10.242 0 10.527-.061 11.11-2.384.647-2.576 3.932-4.309 13.811-7.287 5.047-1.522 7.044-2.944 14.234-10.134 6.41-6.41 8.615-9.336 9.44-12.529 2.497-9.662 4.145-12.754 7.112-13.347l2.843-.569v-12.9c0-12.772-.024-12.909-2.452-13.832-2.856-1.086-4.707-4.318-7.01-12.24-1.42-4.883-2.862-6.91-10.103-14.2-6.637-6.682-9.463-8.813-13.191-9.946-2.609-.792-7.336-2.644-10.504-4.114-5.752-2.67-16.776-4.062-22.74-2.872"/><path fill="#1976D2" fill-opacity=".229" fill-rule="evenodd" d="M102.667.667c-.367.366-.667 1.481-.667 2.477 0 3.465-6.761 5.904-23.221 8.377-2.046.307-4.971 1.58-6.5 2.829-1.528 1.248-5.166 3.241-8.085 4.428-2.918 1.186-6.518 3.265-8 4.62-1.481 1.354-4.996 4.406-7.808 6.782-4.778 4.035-9.186 8.618-17.625 18.32-1.914 2.2-4.011 5.639-4.662 7.642s-2.558 5.717-4.238 8.255c-2.181 3.292-3.286 6.467-3.859 11.088-1.163 9.377-3.905 17.294-6.771 19.548-1.356 1.067-2.863 1.694-3.349 1.394C7.375 96.114 7 129.932 7 175.941V256h5.481c4.97 0 5.538-.226 6.091-2.43.495-1.974 1.859-2.805 7.269-4.426 3.662-1.098 8.909-2.291 11.659-2.651 7.053-.924 11.668-2.437 14.06-4.612 1.133-1.03 4.1-2.568 6.593-3.418 2.493-.849 6.042-3.101 7.886-5.004S70 230 70.743 230s3.406-2.025 5.916-4.5 4.959-4.5 5.44-4.5 2.022-1.815 3.422-4.034 3.421-4.908 4.49-5.977 2.569-3.441 3.334-5.272 2.571-4.602 4.013-6.159c2.353-2.539 4.622-8.047 4.636-11.259.003-.661 1.694-4.431 3.756-8.379l3.75-7.178.341-79.621C110.212 6.664 109.902 0 105.506 0c-1.195 0-2.473.3-2.839.667"/></svg>